<?xml version="1.0" encoding="UTF-8" standalone="no"?>
<!-- Created with Inkscape (http://www.inkscape.org/) -->

<svg
   xmlns:dc="http://purl.org/dc/elements/1.1/"
   xmlns:cc="http://creativecommons.org/ns#"
   xmlns:rdf="http://www.w3.org/1999/02/22-rdf-syntax-ns#"
   xmlns:svg="http://www.w3.org/2000/svg"
   xmlns="http://www.w3.org/2000/svg"
   xmlns:xlink="http://www.w3.org/1999/xlink"
   xmlns:sodipodi="http://sodipodi.sourceforge.net/DTD/sodipodi-0.dtd"
   xmlns:inkscape="http://www.inkscape.org/namespaces/inkscape"
   width="744.09448819"
   height="1052.3622047"
   id="svg2"
   version="1.1"
   inkscape:version="0.48.1 "
   sodipodi:docname="2013-0123-heart-bgColor-twoPhase.svg">
  <defs
     id="defs4">
    <linearGradient
       id="linearGradient3882">
      <stop
         id="stop3884"
         offset="0"
         style="stop-color:#000000;stop-opacity:1;" />
      <stop
         style="stop-color:#000000;stop-opacity:0.49803922;"
         offset="0.66893476"
         id="stop3886" />
      <stop
         id="stop3888"
         offset="1"
         style="stop-color:#000000;stop-opacity:0;" />
    </linearGradient>
    <linearGradient
       id="linearGradient3860">
      <stop
         style="stop-color:#000000;stop-opacity:1;"
         offset="0"
         id="stop3862" />
      <stop
         id="stop3890"
         offset="0.34136212"
         style="stop-color:#000000;stop-opacity:0.74901961;" />
      <stop
         id="stop3868"
         offset="0.68272424"
         style="stop-color:#000000;stop-opacity:0.49803922;" />
      <stop
         style="stop-color:#000000;stop-opacity:0;"
         offset="1"
         id="stop3864" />
    </linearGradient>
    <linearGradient
       id="linearGradient3832">
      <stop
         id="stop3834"
         offset="0"
         style="stop-color:#424242;stop-opacity:1;" />
      <stop
         style="stop-color:#424242;stop-opacity:0.49803922;"
         offset="0.53654486"
         id="stop3836" />
      <stop
         id="stop3838"
         offset="1"
         style="stop-color:#424242;stop-opacity:0;" />
    </linearGradient>
    <linearGradient
       id="linearGradient3774">
      <stop
         style="stop-color:#424242;stop-opacity:1;"
         offset="0"
         id="stop3776" />
      <stop
         id="stop3782"
         offset="0.74916947"
         style="stop-color:#424242;stop-opacity:0.49803922;" />
      <stop
         style="stop-color:#424242;stop-opacity:0;"
         offset="1"
         id="stop3778" />
    </linearGradient>
    <linearGradient
       inkscape:collect="always"
       xlink:href="#linearGradient3832"
       id="linearGradient3785"
       gradientUnits="userSpaceOnUse"
       gradientTransform="matrix(0,-1,1,0,11.630566,-121.21831)"
       x1="-410.41022"
       y1="239.15363"
       x2="-258.38226"
       y2="239.15363" />
    <filter
       inkscape:collect="always"
       id="filter3804"
       x="-0.15686134"
       width="1.3137227"
       y="-0.51065315"
       height="2.0213063">
      <feGaussianBlur
         inkscape:collect="always"
         stdDeviation="2.641696"
         id="feGaussianBlur3806" />
    </filter>
    <filter
       color-interpolation-filters="sRGB"
       inkscape:collect="always"
       id="filter3804-7"
       x="-0.15686134"
       width="1.3137227"
       y="-0.51065314"
       height="2.0213063">
      <feGaussianBlur
         inkscape:collect="always"
         stdDeviation="2.641696"
         id="feGaussianBlur3806-6" />
    </filter>
    <linearGradient
       inkscape:collect="always"
       xlink:href="#linearGradient3882"
       id="linearGradient3880"
       gradientUnits="userSpaceOnUse"
       gradientTransform="matrix(0,-1,1,0,-180.85306,267.22113)"
       x1="-8.9461174"
       y1="224.03709"
       x2="95.03289"
       y2="224.03709" />
  </defs>
  <sodipodi:namedview
     id="base"
     pagecolor="#ffffff"
     bordercolor="#666666"
     borderopacity="1.0"
     inkscape:pageopacity="0.0"
     inkscape:pageshadow="2"
     inkscape:zoom="1.979899"
     inkscape:cx="169.71419"
     inkscape:cy="859.87015"
     inkscape:document-units="px"
     inkscape:current-layer="layer1"
     showgrid="false"
     inkscape:window-width="1400"
     inkscape:window-height="1028"
     inkscape:window-x="-4"
     inkscape:window-y="-4"
     inkscape:window-maximized="1" />
  <metadata
     id="metadata7">
    <rdf:RDF>
      <cc:Work
         rdf:about="">
        <dc:format>image/svg+xml</dc:format>
        <dc:type
           rdf:resource="http://purl.org/dc/dcmitype/StillImage" />
        <dc:title></dc:title>
      </cc:Work>
    </rdf:RDF>
  </metadata>
  <g
     inkscape:label="Layer 1"
     inkscape:groupmode="layer"
     id="layer1">
    <rect
       style="fill:#ff00ff;fill-opacity:1;stroke:none"
       id="rect3789"
       width="250.51782"
       height="238.396"
       x="21.213192"
       y="336.16403" />
    <path
       style="fill:url(#linearGradient3785);fill-opacity:1;stroke:none"
       d="m 174.75556,137.15669 0,152.03125 152.03125,0 0,-152.03125 -152.03125,0 z m 46.5625,19.375 c 10.10402,-0.33168 20.60199,3.41449 29.46875,12.28125 27.0225,-27.0225 69.1875,-6.40309 69.1875,31.8125 0,38.21559 -36.09183,50.11095 -69.1875,69.21875 -33.09567,-19.1078 -69.1875,-31.00316 -69.1875,-69.21875 0,-25.6761 19.02957,-43.4146 39.71875,-44.09375 z"
       id="rect2988"
       inkscape:connector-curvature="0"
       inkscape:export-filename="D:\Web\inkscape\path3787-1.png"
       inkscape:export-xdpi="177.60001"
       inkscape:export-ydpi="177.60001" />
    <path
       style="opacity:1;fill:url(#linearGradient3880);fill-opacity:1;stroke:none"
       d="M -32.84375 148.03125 L -32.84375 300.0625 L 119.1875 300.0625 L 119.1875 148.03125 L -32.84375 148.03125 z M 15.15625 167.375 C 24.810482 167.43041 34.742969 171.24297 43.1875 179.6875 C 70.21 152.665 112.375 173.28441 112.375 211.5 C 112.375 249.71559 76.28317 261.5797 43.1875 280.6875 C 10.09183 261.5797 -26 249.71559 -26 211.5 C -26 185.22678 -6.0830608 167.25309 15.15625 167.375 z "
       id="rect2993"
       inkscape:export-filename="D:\Web\inkscape\g3898.png"
       inkscape:export-xdpi="177.60001"
       inkscape:export-ydpi="177.60001" />
    <path
       style="opacity:0.8;fill:#ffffff;fill-opacity:1;stroke:none;filter:url(#filter3804)"
       d="m 222.2518,159.89496 c -11.15613,0 -20.23274,4.18896 -20.23274,9.35803 0,1.06781 0.42114,2.10162 1.1319,3.05758 4.19347,-2.95013 11.84945,-4.91065 20.61004,-4.91065 7.33793,0 13.89472,1.38346 18.29907,3.56717 0.22054,-0.55397 0.3773,-1.13055 0.3773,-1.7141 0,-5.16907 -9.02945,-9.35803 -20.18557,-9.35803 z"
       id="path3787"
       inkscape:connector-curvature="0"
       transform="matrix(0.87035124,-0.57332832,0.47126142,1.058854,-60.698883,125.25635)"
       inkscape:export-xdpi="177.60001"
       inkscape:export-ydpi="177.60001" />
    <path
       style="opacity:0.5;fill:#ffffff;fill-opacity:1;stroke:none;filter:url(#filter3804-7)"
       d="m 276.30031,166.81659 c -11.15613,0 -20.23274,4.18896 -20.23274,9.35803 0,1.06781 0.42114,2.10162 1.1319,3.05758 4.19347,-2.95013 11.84945,-4.91065 20.61004,-4.91065 7.33793,0 13.89472,1.38346 18.29907,3.56717 0.22054,-0.55397 0.3773,-1.13055 0.3773,-1.7141 0,-5.16907 -9.02945,-9.35803 -20.18557,-9.35803 z"
       id="path3787-1"
       inkscape:connector-curvature="0"
       transform="matrix(0.79051313,-0.21496974,0.2111827,0.77039149,18.440214,92.606331)"
       inkscape:export-xdpi="177.60001"
       inkscape:export-ydpi="177.60001" />
    <rect
       style="opacity:0.5;fill:#ff8144;fill-opacity:1;stroke:none"
       id="rect3840"
       width="152.03101"
       height="80.307129"
       x="174.75568"
       y="137.15669" />
    <path
       style="opacity:0.5;fill:#ff8144;fill-opacity:1;stroke:none"
       d="M -32.84375 148.03125 L -32.84375 228.34375 L -23.25 228.34375 C -25.027954 223.3355 -26 217.78328 -26 211.5 C -26 173.28441 16.165 152.665 43.1875 179.6875 C 70.21 152.665 112.375 173.28441 112.375 211.5 C 112.375 217.78133 111.4019 223.33671 109.625 228.34375 L 119.1875 228.34375 L 119.1875 148.03125 L -32.84375 148.03125 z "
       id="rect3840-9"
       inkscape:export-filename="D:\Web\inkscape\g3898.png"
       inkscape:export-xdpi="177.60001"
       inkscape:export-ydpi="177.60001" />
    <g
       id="g3898"
       transform="translate(-8,2)"
       inkscape:export-xdpi="177.60001"
       inkscape:export-ydpi="177.60001">
      <path
         style="opacity:0.8;fill:#ffffff;fill-opacity:1;stroke:none;filter:url(#filter3804)"
         d="m 222.2518,159.89496 c -11.15613,0 -20.23274,4.18896 -20.23274,9.35803 0,1.06781 0.42114,2.10162 1.1319,3.05758 4.19347,-2.95013 11.84945,-4.91065 20.61004,-4.91065 7.33793,0 13.89472,1.38346 18.29907,3.56717 0.22054,-0.55397 0.3773,-1.13055 0.3773,-1.7141 0,-5.16907 -9.02945,-9.35803 -20.18557,-9.35803 z"
         id="path3894"
         inkscape:connector-curvature="0"
         transform="matrix(0.87035124,-0.57332832,0.47126142,1.058854,-262.69888,133.25635)"
         inkscape:export-xdpi="177.60001"
         inkscape:export-ydpi="177.60001" />
      <path
         style="opacity:0.5;fill:#ffffff;fill-opacity:1;stroke:none;filter:url(#filter3804-7)"
         d="m 276.30031,166.81659 c -11.15613,0 -20.23274,4.18896 -20.23274,9.35803 0,1.06781 0.42114,2.10162 1.1319,3.05758 4.19347,-2.95013 11.84945,-4.91065 20.61004,-4.91065 7.33793,0 13.89472,1.38346 18.29907,3.56717 0.22054,-0.55397 0.3773,-1.13055 0.3773,-1.7141 0,-5.16907 -9.02945,-9.35803 -20.18557,-9.35803 z"
         id="path3896"
         inkscape:connector-curvature="0"
         transform="matrix(0.79051313,-0.21496974,0.2111827,0.77039149,-183.55979,100.60633)"
         inkscape:export-xdpi="177.60001"
         inkscape:export-ydpi="177.60001" />
    </g>
  </g>
</svg>
